<svg xmlns="http://www.w3.org/2000/svg" width="49.702" height="50.043" viewBox="0 0 49.702 50.043">
  <g id="Blood_test" data-name="Blood test" transform="translate(-2 -1.588)">
    <path id="Path_100" data-name="Path 100" d="M50.873,50H2.828A.828.828,0,0,0,2,50.828v3.313a5.805,5.805,0,0,0,5.8,5.8H45.9a5.805,5.805,0,0,0,5.8-5.8V50.828A.828.828,0,0,0,50.873,50Zm-.828,4.142A4.147,4.147,0,0,1,45.9,58.284H7.8a4.147,4.147,0,0,1-4.142-4.142V51.657H50.045Z" transform="translate(0 -8.309)" fill="#fff"/>
    <path id="Path_101" data-name="Path 101" d="M30.97,45.256a4.975,4.975,0,0,0,4.97-4.97c0-3.615-4.206-7.862-4.385-8.041a.852.852,0,0,0-1.171,0C30.206,32.424,26,36.671,26,40.286a4.975,4.975,0,0,0,4.97,4.97Zm0-11.213c1.277,1.438,3.313,4.172,3.313,6.243a3.313,3.313,0,1,1-6.627,0C27.657,38.215,29.694,35.481,30.97,34.043Z" transform="translate(-4.119 -5.222)" fill="#fff"/>
    <path id="Path_102" data-name="Path 102" d="M8,55H9.657v1.657H8Z" transform="translate(-1.03 -9.168)" fill="#fff"/>
    <path id="Path_103" data-name="Path 103" d="M12,55h8.284v1.657H12Z" transform="translate(-1.716 -9.168)" fill="#fff"/>
    <path id="Path_104" data-name="Path 104" d="M58,2h3.313V3.657H58Z" transform="translate(-9.612 -0.071)" fill="#fff"/>
    <path id="Path_105" data-name="Path 105" d="M48,2h6.627V3.657H48Z" transform="translate(-7.895 -0.071)" fill="#fff"/>
    <path id="Path_106" data-name="Path 106" d="M53,6h7.455V7.657H53Z" transform="translate(-8.754 -0.757)" fill="#fff"/>
    <path id="Path_107" data-name="Path 107" d="M56,10h4.97v1.657H56Z" transform="translate(-9.269 -1.444)" fill="#fff"/>
    <path id="Path_108" data-name="Path 108" d="M42,2h3.313V3.657H42Z" transform="translate(-6.866 -0.071)" fill="#fff"/>
    <path id="Path_109" data-name="Path 109" d="M42,6h7.455V7.657H42Z" transform="translate(-6.866 -0.757)" fill="#fff"/>
    <path id="Path_110" data-name="Path 110" d="M53,14h7.455v1.657H53Z" transform="translate(-8.754 -2.13)" fill="#fff"/>
    <path id="Path_111" data-name="Path 111" d="M42,14h7.455v1.657H42Z" transform="translate(-6.866 -2.13)" fill="#fff"/>
    <path id="Path_112" data-name="Path 112" d="M42,10h9.94v1.657H42Z" transform="translate(-6.866 -1.444)" fill="#fff"/>
    <path id="Path_113" data-name="Path 113" d="M57.739,32H42.828a.828.828,0,0,0-.828.828v9.94a.828.828,0,0,0,.828.828h14.91a.828.828,0,0,0,.828-.828v-9.94A.828.828,0,0,0,57.739,32Zm-.828,9.94H43.657V33.657H56.91Z" transform="translate(-6.866 -5.22)" fill="#fff"/>
    <path id="Path_114" data-name="Path 114" d="M46,36h1.657v1.657H46Z" transform="translate(-7.552 -5.906)" fill="#fff"/>
    <path id="Path_115" data-name="Path 115" d="M50,36h6.627v1.657H50Z" transform="translate(-8.239 -5.906)" fill="#fff"/>
    <path id="Path_116" data-name="Path 116" d="M46,40h9.94v1.657H46Z" transform="translate(-7.552 -6.593)" fill="#fff"/>
    <path id="Path_117" data-name="Path 117" d="M42.02,25.455h7.112a.828.828,0,0,0,.828-.828V18H48.3v5.8H41.677a.828.828,0,0,0-.586.243l-5.8,5.8,1.171,1.171Z" transform="translate(-5.714 -2.817)" fill="#fff"/>
    <path id="Path_118" data-name="Path 118" d="M27.052,6.063,19.879,1.921a2.485,2.485,0,0,0-3.4.911l-.828,1.433a2.5,2.5,0,0,0,.911,3.4L4.554,28.47a4.08,4.08,0,0,0-.414,3.139,4.142,4.142,0,0,0,7.588,1L23.739,11.8a2.485,2.485,0,0,0,3.4-.911l.828-1.433a2.5,2.5,0,0,0-.911-3.4ZM10.295,31.783A2.486,2.486,0,1,1,5.987,29.3l5.8-10.048,4.307,2.485ZM16.922,20.3l-4.307-2.485L15.1,13.51l4.307,2.485Zm3.313-5.741-4.307-2.485L18,8.49l4.307,2.485Zm6.3-5.931L25.7,10.064a.837.837,0,0,1-1.135.306L17.394,6.228a.837.837,0,0,1-.306-1.135l.828-1.433a.828.828,0,0,1,1.135-.3L26.224,7.5A.828.828,0,0,1,26.531,8.631Z" transform="translate(-0.342 0)" fill="#fff"/>
    <path id="Path_119" data-name="Path 119" d="M19.966,19.809l-.717-.414.414-.717-1.435-.828-.414.717-.717-.414-.828,1.436.717.414-.414.717,1.435.828.414-.717.717.414Z" transform="translate(-2.449 -2.791)" fill="#fff"/>
    <path id="Path_120" data-name="Path 120" d="M33.97,26.485a2.485,2.485,0,1,0-2.485,2.485A2.485,2.485,0,0,0,33.97,26.485Zm-3.313,0a.828.828,0,1,1,.828.828A.828.828,0,0,1,30.657,26.485Z" transform="translate(-4.634 -3.847)" fill="#fff"/>
    <path id="Path_121" data-name="Path 121" d="M29,18.485A2.485,2.485,0,1,0,31.485,16,2.485,2.485,0,0,0,29,18.485Zm3.313,0a.828.828,0,1,1-.828-.828A.828.828,0,0,1,32.313,18.485Z" transform="translate(-4.634 -2.474)" fill="#fff"/>
  </g>
</svg>
