<svg id="blueprint" xmlns="http://www.w3.org/2000/svg" width="57.162" height="53.347" viewBox="0 0 57.162 53.347">
  <g id="Group_15" data-name="Group 15" transform="translate(35.247 5.716)">
    <g id="Group_14" data-name="Group 14">
      <path id="Path_1" data-name="Path 1" d="M316.962,64.016h-3.814v1.905h2.858V93.547h-5.716a.953.953,0,0,0-.953.953v5.716H296v1.905h14.289a.957.957,0,0,0,.673-.279l6.668-6.668a.953.953,0,0,0,.191-.279c.013-.03.021-.058.031-.089a.956.956,0,0,0,.05-.248c0-.02.011-.038.011-.058V64.969A.953.953,0,0,0,316.962,64.016Zm-5.72,34.853V95.453h3.416Z" transform="translate(-296 -64.016)" fill="#fff"/>
    </g>
  </g>
  <g id="Group_17" data-name="Group 17" transform="translate(0 0)">
    <g id="Group_16" data-name="Group 16">
      <path id="Path_2" data-name="Path 2" d="M3.811,54.121H6.668a.953.953,0,0,0,.953-.953V23.637H40.01V21.732H7.621V16.969a.953.953,0,0,0-.953-.953H3.811A3.811,3.811,0,0,0,0,19.827v36.2a3.811,3.811,0,0,0,3.811,3.811H9.526V57.932H3.811a1.905,1.905,0,1,1,0-3.811ZM1.905,19.827a1.905,1.905,0,0,1,1.905-1.905H5.716V52.216H3.811a3.782,3.782,0,0,0-1.905.512Z" transform="translate(0 -16.016)" fill="#fff"/>
    </g>
  </g>
  <g id="Group_19" data-name="Group 19" transform="translate(41.916 0)">
    <g id="Group_18" data-name="Group 18">
      <path id="Path_3" data-name="Path 3" d="M359.621,16.016h-6.668a.953.953,0,0,0-.953.953V47.453a.953.953,0,0,0,.953.953h6.668a.953.953,0,0,0,.953-.953V16.969A.953.953,0,0,0,359.621,16.016ZM358.668,46.5h-4.763V44.595h1.905V42.69h-1.905V40.784h1.905V38.879h-1.905V36.974h1.905V35.069h-1.905V33.163h1.905V31.258h-1.905V29.353h1.905V27.448h-1.905V25.542h1.905V23.637h-1.905V21.732h1.905V19.827h-1.905V17.921h4.763Z" transform="translate(-352 -16.016)" fill="#fff"/>
    </g>
  </g>
  <g id="Group_21" data-name="Group 21" transform="translate(11.432 23.816)">
    <g id="Group_20" data-name="Group 20">
      <path id="Path_4" data-name="Path 4" d="M125.252,243.92,97.626,216.294a.952.952,0,0,0-1.626.674v27.626a.953.953,0,0,0,.953.953h27.626a.953.953,0,0,0,.674-1.626Zm-27.347-.279V219.267l24.374,24.374Z" transform="translate(-96 -216.015)" fill="#fff"/>
    </g>
  </g>
  <g id="Group_23" data-name="Group 23" transform="translate(16.195 35.247)">
    <g id="Group_22" data-name="Group 22">
      <path id="Path_5" data-name="Path 5" d="M149.058,323.728,137.626,312.3a.953.953,0,0,0-1.626.673V324.4a.953.953,0,0,0,.953.953h11.432a.953.953,0,0,0,.673-1.626Zm-11.152-.279V315.27l8.179,8.179Z" transform="translate(-136 -312.018)" fill="#fff"/>
    </g>
  </g>
  <g id="Group_25" data-name="Group 25" transform="translate(32.389 12.384)">
    <g id="Group_24" data-name="Group 24">
      <path id="Path_6" data-name="Path 6" d="M274.858,120.016A2.858,2.858,0,0,0,272,122.874v20.958a.953.953,0,0,0,.279.674l1.905,1.905a.953.953,0,0,0,1.347,0l1.905-1.905a.952.952,0,0,0,.279-.674V122.874A2.858,2.858,0,0,0,274.858,120.016Zm.953,23.421-.953.953-.953-.953V125.732h1.905Zm0-19.611h-1.905v-.953a.953.953,0,1,1,1.905,0Z" transform="translate(-272 -120.016)" fill="#fff"/>
    </g>
  </g>
  <g id="Group_27" data-name="Group 27" transform="translate(17.147 12.384)">
    <g id="Group_26" data-name="Group 26">
      <path id="Path_7" data-name="Path 7" d="M154.479,120.016h-6.668a3.811,3.811,0,1,0,0,7.621h6.668a.953.953,0,0,0,.953-.953v-5.716A.953.953,0,0,0,154.479,120.016Zm-6.668,5.716a1.905,1.905,0,1,1,0-3.811Zm5.716,0h-3.811v-3.811h3.811Z" transform="translate(-144 -120.016)" fill="#fff"/>
    </g>
  </g>
</svg>
