<svg id="business" xmlns="http://www.w3.org/2000/svg" width="56.205" height="57.157" viewBox="0 0 56.205 57.157">
  <g id="Group_29" data-name="Group 29" transform="translate(0)">
    <g id="Group_28" data-name="Group 28">
      <path id="Path_8" data-name="Path 8" d="M46.868,0H8.763A4.769,4.769,0,0,0,4,4.763V35.247A4.763,4.763,0,0,0,7.573,39.86l.476-1.844a2.858,2.858,0,0,1-2.144-2.768V4.763A2.858,2.858,0,0,1,8.763,1.905H46.868a2.858,2.858,0,0,1,2.858,2.858v.953h1.905V4.763A4.769,4.769,0,0,0,46.868,0Z" transform="translate(-4)" fill="#fff"/>
    </g>
  </g>
  <g id="Group_31" data-name="Group 31" transform="translate(3.558 3.599)">
    <g id="Group_30" data-name="Group 30" transform="translate(0 0)">
      <rect id="Rectangle_51" data-name="Rectangle 51" width="2" height="2" transform="translate(-0.075 0.077)" fill="#fff"/>
    </g>
  </g>
  <g id="Group_33" data-name="Group 33" transform="translate(7.527 3.599)">
    <g id="Group_32" data-name="Group 32" transform="translate(0 0)">
      <rect id="Rectangle_52" data-name="Rectangle 52" width="2" height="2" transform="translate(-0.043 0.077)" fill="#fff"/>
    </g>
  </g>
  <g id="Group_35" data-name="Group 35" transform="translate(11.495 3.599)">
    <g id="Group_34" data-name="Group 34" transform="translate(0 0)">
      <rect id="Rectangle_53" data-name="Rectangle 53" width="2" height="2" transform="translate(-0.012 0.077)" fill="#fff"/>
    </g>
  </g>
  <g id="Group_37" data-name="Group 37" transform="translate(9.526 15.242)">
    <g id="Group_36" data-name="Group 36">
      <path id="Path_9" data-name="Path 9" d="M130.4,165.432l-9.036-9.036a13.176,13.176,0,0,0,1.132-2.675h1.515v-1.905h-1.105a12.836,12.836,0,0,0-.8-6.827v-9.368H120.2v6.066a13.408,13.408,0,0,0-1.905-1.978v-7.9h-1.905v6.567a13.251,13.251,0,0,0-1.905-.91V128h-1.905v8.89a13.191,13.191,0,0,0-1.905-.268v-6.717h-1.905v6.717a13.192,13.192,0,0,0-1.905.268v-3.174h-1.905v3.752a13.256,13.256,0,0,0-1.905.91v-5.615h-1.905v6.947a13.408,13.408,0,0,0-1.905,1.978v-7.019H97.337v10.321a12.836,12.836,0,0,0-.8,6.827H84v1.905H96.946a13.309,13.309,0,0,0,20.428,7.1l8.82,8.82a.953.953,0,0,0,1.347,0l2.858-2.858A.953.953,0,0,0,130.4,165.432Zm-20.679-4.09a11.432,11.432,0,1,1,11.432-11.432A11.444,11.444,0,0,1,109.721,161.342Zm17.147,6.274-8.014-8.014a13.5,13.5,0,0,0,1.434-1.588l8.091,8.091Z" transform="translate(-84 -128)" fill="#fff"/>
    </g>
  </g>
  <g id="Group_39" data-name="Group 39" transform="translate(25.721 27.626)">
    <g id="Group_38" data-name="Group 38">
      <path id="Path_10" data-name="Path 10" d="M229.526,232a9.526,9.526,0,1,0,9.526,9.526A9.526,9.526,0,0,0,229.526,232Zm0,17.147a7.621,7.621,0,0,1-6.59-3.811h13.181A7.621,7.621,0,0,1,229.526,249.147Zm-7.37-5.716a7.551,7.551,0,0,1,2.607-7.845v5.94h1.905v-7.06a7.586,7.586,0,0,1,1.905-.5v7.555h1.905v-7.555a7.586,7.586,0,0,1,1.905.5v7.06h1.905v-5.94a7.551,7.551,0,0,1,2.607,7.845Z" transform="translate(-220 -232)" fill="#fff"/>
    </g>
  </g>
  <g id="Group_41" data-name="Group 41" transform="translate(5.716 7.621)">
    <g id="Group_40" data-name="Group 40">
      <path id="Path_11" data-name="Path 11" d="M94.868,64H56.763A4.769,4.769,0,0,0,52,68.763V99.247a4.769,4.769,0,0,0,4.763,4.763H69.147v-1.905H56.763a2.858,2.858,0,0,1-2.858-2.858V68.763a2.858,2.858,0,0,1,2.858-2.858H94.868a2.858,2.858,0,0,1,2.858,2.858V99.247a2.858,2.858,0,0,1-.714,1.89l1.429,1.26a4.757,4.757,0,0,0,1.191-3.15V68.763A4.769,4.769,0,0,0,94.868,64Z" transform="translate(-52 -64)" fill="#fff"/>
    </g>
  </g>
  <g id="Group_43" data-name="Group 43" transform="translate(9.114 11.536)">
    <g id="Group_42" data-name="Group 42" transform="translate(0 0)">
      <rect id="Rectangle_54" data-name="Rectangle 54" width="2" height="1" transform="translate(0.369 0.14)" fill="#fff"/>
    </g>
  </g>
  <g id="Group_45" data-name="Group 45" transform="translate(13.083 11.536)">
    <g id="Group_44" data-name="Group 44" transform="translate(0 0)">
      <rect id="Rectangle_55" data-name="Rectangle 55" width="1" height="1" transform="translate(0.401 0.14)" fill="#fff"/>
    </g>
  </g>
  <g id="Group_47" data-name="Group 47" transform="translate(17.051 11.536)">
    <g id="Group_46" data-name="Group 46" transform="translate(0 0)">
      <rect id="Rectangle_56" data-name="Rectangle 56" width="2" height="1" transform="translate(0.432 0.14)" fill="#fff"/>
    </g>
  </g>
  <g id="Group_49" data-name="Group 49" transform="translate(11.495 31.378)">
    <g id="Group_48" data-name="Group 48" transform="translate(0 0)">
      <rect id="Rectangle_57" data-name="Rectangle 57" width="2" height="5" transform="translate(-0.012 0.298)" fill="#fff"/>
    </g>
  </g>
  <g id="Group_51" data-name="Group 51" transform="translate(14.67 25.822)">
    <g id="Group_50" data-name="Group 50" transform="translate(0 0)">
      <rect id="Rectangle_58" data-name="Rectangle 58" width="3" height="11" transform="translate(-0.186 -0.146)" fill="#fff"/>
    </g>
  </g>
  <g id="Group_53" data-name="Group 53" transform="translate(19.432 28.997)">
    <g id="Group_52" data-name="Group 52" transform="translate(0 0)">
      <rect id="Rectangle_59" data-name="Rectangle 59" width="2" height="8" transform="translate(0.051 -0.321)" fill="#fff"/>
    </g>
  </g>
</svg>
