<svg xmlns="http://www.w3.org/2000/svg" width="50.072" height="50.071" viewBox="0 0 50.072 50.071">
  <g id="Page-1" transform="translate(0.001 -0.002)">
    <g id="_057---Design-Ad-Website" data-name="057---Design-Ad-Website" transform="translate(-0.001 0.002)">
      <path id="Shape" d="M3.5,41.727H17.175l-1.669,3.338H12.683a2.5,2.5,0,1,0,0,5.007H36.05a2.5,2.5,0,0,0,0-5.007H33.228l-1.669-3.338H45.23a2.587,2.587,0,0,0,2.5-2.654V9.317l.8-.8.007-.01,1.793-1.791a2.534,2.534,0,0,0,0-3.578l-2.4-2.4a2.533,2.533,0,0,0-3.578,0L42.564,2.533l-.01.007-.8.8H3.5A2.587,2.587,0,0,0,1,5.992V39.073A2.587,2.587,0,0,0,3.5,41.727Zm33.382,5.842a.835.835,0,0,1-.835.835H12.683a.835.835,0,1,1,0-1.669H36.05A.835.835,0,0,1,36.885,47.569Zm-5.523-2.5H17.372l1.669-3.338H29.693Zm3.744-32.015,2.914,2.913-4.469,1.547Zm3.228.868,7.21-7.21,1.219,1.219-7.207,7.21Zm7.2-12a.86.86,0,0,1,1.218,0l2.4,2.4a.861.861,0,0,1,0,1.218l-1.21,1.209L44.326,3.131ZM43.144,4.31l1.219,1.219-7.21,7.21-1.219-1.222ZM3.5,5.008H40.086l-5.925,5.925a.819.819,0,0,0-.192.32h-.006l-1.992,5.714a1.669,1.669,0,0,0,1.571,2.227,1.722,1.722,0,0,0,.567-.1l5.714-1.99V17.1a.819.819,0,0,0,.32-.192l5.925-5.925V35.051H9.345a.835.835,0,1,0,0,1.669h36.72v2.353a.931.931,0,0,1-.835.985H3.5a.931.931,0,0,1-.835-.985V36.72H6.007a.835.835,0,1,0,0-1.669H2.669V5.992A.931.931,0,0,1,3.5,5.008Z" transform="translate(-0.999 -0.002)" fill="#fff"/>
      <path id="Shape-2" data-name="Shape" d="M7.5,19.684H27.533a2.5,2.5,0,0,0,2.5-2.5V10.5a2.5,2.5,0,0,0-2.5-2.5H7.5A2.5,2.5,0,0,0,5,10.5V17.18A2.5,2.5,0,0,0,7.5,19.684ZM28.367,10.5v2.5h-2.5a.835.835,0,0,1-.835-.835v-2.5h2.5A.835.835,0,0,1,28.367,10.5Zm-21.7,0A.835.835,0,0,1,7.5,9.669H23.36v2.5a2.5,2.5,0,0,0,2.5,2.5h2.5v2.5a.835.835,0,0,1-.835.835H7.5a.835.835,0,0,1-.835-.835Z" transform="translate(-1.661 -1.325)" fill="#fff"/>
      <path id="Shape-3" data-name="Shape" d="M18.518,24H7.669A1.669,1.669,0,0,0,6,25.669V35.684a1.669,1.669,0,0,0,1.669,1.669H18.518a1.669,1.669,0,0,0,1.669-1.669V25.669A1.669,1.669,0,0,0,18.518,24Zm0,1.669v6.676H7.669V25.669ZM7.669,35.684V34.014H18.518v1.669Z" transform="translate(-1.826 -3.972)" fill="#fff"/>
      <path id="Shape-4" data-name="Shape" d="M13.245,31.1a.835.835,0,0,0,1.18,0l.835-.835a.835.835,0,0,0,0-1.18l-.835-.835a.835.835,0,0,0-1.18,1.18l.245.245-.245.245A.835.835,0,0,0,13.245,31.1Z" transform="translate(-2.985 -4.636)" fill="#fff"/>
      <path id="Shape-5" data-name="Shape" d="M25,25.835a.835.835,0,0,0,.835.835h21.7a.835.835,0,1,0,0-1.669h-21.7A.835.835,0,0,0,25,25.835Z" transform="translate(-4.97 -4.138)" fill="#fff"/>
      <path id="Shape-6" data-name="Shape" d="M51.173,29H47.835a.835.835,0,1,0,0,1.669h3.338a.835.835,0,1,0,0-1.669Z" transform="translate(-8.61 -4.8)" fill="#fff"/>
      <path id="Shape-7" data-name="Shape" d="M25.835,30.669H40.856a.835.835,0,1,0,0-1.669H25.835a.835.835,0,0,0,0,1.669Z" transform="translate(-4.97 -4.8)" fill="#fff"/>
      <path id="Shape-8" data-name="Shape" d="M48.691,33H32.835a.835.835,0,1,0,0,1.669H48.691a.835.835,0,1,0,0-1.669Z" transform="translate(-6.128 -5.462)" fill="#fff"/>
      <path id="Shape-9" data-name="Shape" d="M25.835,34.669h2.5a.835.835,0,1,0,0-1.669h-2.5a.835.835,0,1,0,0,1.669Z" transform="translate(-4.97 -5.462)" fill="#fff"/>
      <path id="Shape-10" data-name="Shape" d="M36.684,37H25.835a.835.835,0,0,0,0,1.669H36.684a.835.835,0,0,0,0-1.669Z" transform="translate(-4.97 -6.123)" fill="#fff"/>
    </g>
  </g>
</svg>
