<svg id="research" xmlns="http://www.w3.org/2000/svg" width="48.418" height="48.418" viewBox="0 0 48.418 48.418">
  <path id="Path_130" data-name="Path 130" d="M29.152,19A10.152,10.152,0,1,0,39.3,29.152,10.164,10.164,0,0,0,29.152,19Zm-8.59,10.152c0-.264.016-.523.04-.781H37.7c.023.258.039.517.039.781s-.016.523-.04.781H20.6C20.578,29.675,20.562,29.416,20.562,29.152Zm9.371-2.343H28.371V23.686h1.562Zm6.861-1.562a8.514,8.514,0,0,1,.615,1.562H36.181V25.247Zm-1.021-1.562H35.4a.781.781,0,0,0-.781.781v2.343H31.495V22.9a.781.781,0,0,0-.781-.781H27.59a.781.781,0,0,0-.781.781v3.9H23.686V22.531a8.577,8.577,0,0,1,12.088,1.155Zm-13.65.543v2.581H20.895A8.557,8.557,0,0,1,22.124,24.228Zm2.1,11.952h9.847a8.541,8.541,0,0,1-9.847,0Zm11.545-1.562H22.531a8.575,8.575,0,0,1-1.636-3.124H37.409a8.573,8.573,0,0,1-1.635,3.124Z" transform="translate(-4.943 -4.943)" fill="#fff"/>
  <path id="Path_131" data-name="Path 131" d="M48.542,44.314l-9.007-9.007a1.558,1.558,0,0,0-.269-1.831l-1.239-1.239h5.924a2.346,2.346,0,0,0,2.343-2.343V3.343A2.346,2.346,0,0,0,43.951,1H3.343A2.346,2.346,0,0,0,1,3.343V29.895a2.346,2.346,0,0,0,2.343,2.343H13.967a13.213,13.213,0,0,0,17.267,4.786l2.242,2.242a1.54,1.54,0,0,0,1.831.269l9.007,9.007a2.99,2.99,0,1,0,4.228-4.228ZM3.343,30.676a.782.782,0,0,1-.781-.781V3.343a.782.782,0,0,1,.781-.781H43.951a.782.782,0,0,1,.781.781V29.895a.782.782,0,0,1-.781.781H37.293a13.162,13.162,0,0,0,.971-3.124h2.563a.781.781,0,0,0,.781-.781V23.647a.781.781,0,0,0-.781-.781H38.265a13.236,13.236,0,0,0-18.523-9.741V9.59a.781.781,0,0,0-.781-.781H15.838a.781.781,0,0,0-.781.781v7.082a13.223,13.223,0,0,0-2.9,6.194h-.219V4.9a.781.781,0,0,0-.781-.781H8.028a.781.781,0,0,0-.781.781V22.866H6.467a.781.781,0,0,0-.781.781v3.124a.781.781,0,0,0,.781.781h5.686a13.162,13.162,0,0,0,.971,3.124Zm35.1-6.247h1.6V25.99h-1.6c.016-.26.04-.517.04-.781S38.461,24.688,38.445,24.428ZM18.181,13.967a13.267,13.267,0,0,0-1.562,1.139V10.371h1.562ZM11.973,25.99H7.247V24.428h4.725c-.016.26-.04.517-.04.781S11.957,25.73,11.973,25.99Zm-1.6-3.124H8.809V5.686h1.562Zm3.124,2.343A11.714,11.714,0,1,1,25.209,36.923,11.727,11.727,0,0,1,13.495,25.209Zm19.135,11a13.4,13.4,0,0,0,3.581-3.581l1.95,1.95L34.58,38.162Zm13.8,11.645a1.418,1.418,0,0,1-1.01-.419l-8.953-8.953,2.02-2.019,8.953,8.953a1.428,1.428,0,0,1-1.01,2.438Z" transform="translate(-1 -1)" fill="#fff"/>
</svg>
