<svg id="Page-1" xmlns="http://www.w3.org/2000/svg" width="46.929" height="46.928" viewBox="0 0 46.929 46.928">
  <g id="_015---User-Network" data-name="015---User-Network" transform="translate(0 0)">
    <path id="Shape" d="M40.818,15.047A7.046,7.046,0,1,0,35.332,12.4l-1.005,1.007a14.746,14.746,0,0,0-19.817,0L13.5,12.4a7.046,7.046,0,1,0-1.1,1.1l1.007,1a14.746,14.746,0,0,0,0,19.817L12.4,35.331a7.046,7.046,0,1,0,1.1,1.1l1-1.007a14.746,14.746,0,0,0,19.817,0l1.005,1.005a7.046,7.046,0,1,0,1.1-1.1l-1.007-1a14.746,14.746,0,0,0,0-19.817L36.434,13.5a6.988,6.988,0,0,0,4.383,1.542Zm-2.343-2.1V12.7a2.343,2.343,0,1,1,4.686,0v.246A5.4,5.4,0,0,1,38.475,12.95Zm.781-5.713A1.562,1.562,0,1,1,40.818,8.8,1.562,1.562,0,0,1,39.256,7.237Zm1.562-4.686a5.462,5.462,0,0,1,3.827,9.367,3.943,3.943,0,0,0-1.065-1.98A4.015,4.015,0,0,0,43,9.469a3.124,3.124,0,1,0-4.362,0,3.914,3.914,0,0,0-1.649,2.447,5.462,5.462,0,0,1,3.827-9.365ZM2.552,8.018a5.467,5.467,0,1,1,9.293,3.9A3.936,3.936,0,0,0,10.78,9.942a4.015,4.015,0,0,0-.578-.469,3.124,3.124,0,1,0-4.362,0,3.914,3.914,0,0,0-1.64,2.45,5.448,5.448,0,0,1-1.649-3.9Zm3.9-.781A1.562,1.562,0,1,1,8.018,8.8,1.562,1.562,0,0,1,6.456,7.237ZM5.676,12.95V12.7a2.343,2.343,0,1,1,4.686,0v.246A5.4,5.4,0,0,1,5.676,12.95Zm0,32.8V45.5a2.343,2.343,0,1,1,4.686,0v.246A5.4,5.4,0,0,1,5.676,45.749Zm.781-5.713A1.562,1.562,0,1,1,8.018,41.6,1.562,1.562,0,0,1,6.456,40.037Zm5.388,4.686a3.936,3.936,0,0,0-1.065-1.981,4.015,4.015,0,0,0-.578-.469,3.124,3.124,0,1,0-4.362,0,3.914,3.914,0,0,0-1.64,2.45,5.467,5.467,0,1,1,7.645,0Zm6.428-8.545a3.124,3.124,0,0,1,2.553-2.343,4.061,4.061,0,0,0,7.178,0,3.124,3.124,0,0,1,2.559,2.339,13.191,13.191,0,0,1-12.3,0ZM20.1,22.169c-1.713-.925-1.952-3.45-1.93-4.987a11.349,11.349,0,0,0,4.971.989c.557,0,1.1-.023,1.618-.044,2.649-.112,3.841-.078,4.361,1.812a2.88,2.88,0,0,1-.563,2.356.781.781,0,0,0,.543,1.342.781.781,0,0,1,0,1.562.781.781,0,0,0-.781.781c0,1.723-1.752,3.124-3.9,3.124s-3.9-1.4-3.9-3.124a.781.781,0,0,0-.781-.781.781.781,0,0,1,0-1.562.781.781,0,0,0,.371-1.468Zm3.33,8.418a6.31,6.31,0,0,0,1.97,0,6.511,6.511,0,0,0,1.207,2.549,2.505,2.505,0,0,1-4.384,0,6.522,6.522,0,0,0,1.207-2.549ZM38.475,45.749V45.5a2.343,2.343,0,1,1,4.686,0v.246A5.4,5.4,0,0,1,38.475,45.749Zm.781-5.713A1.562,1.562,0,1,1,40.818,41.6,1.562,1.562,0,0,1,39.256,40.037Zm1.562-4.686a5.462,5.462,0,0,1,3.827,9.367,3.943,3.943,0,0,0-1.065-1.98A4.015,4.015,0,0,0,43,42.269a3.124,3.124,0,1,0-4.362,0,3.914,3.914,0,0,0-1.649,2.447,5.462,5.462,0,0,1,3.827-9.365Zm-8.869-.012a4.711,4.711,0,0,0-4.04-3.094,4.941,4.941,0,0,1-1.008-2.1,4.8,4.8,0,0,0,2.929-3.5,2.343,2.343,0,0,0,.479-4.236,4.1,4.1,0,0,0,.321-2.885c-.871-3.17-3.443-3.061-5.935-2.96-.5.021-1.015.043-1.552.043-3.637,0-5.107-1.332-5.115-1.339a.781.781,0,0,0-1.319.444c-.031.211-.636,4.56,1.5,6.924A2.343,2.343,0,0,0,19,26.646a4.8,4.8,0,0,0,2.929,3.5,4.941,4.941,0,0,1-1.008,2.1,4.711,4.711,0,0,0-4.04,3.094,13.276,13.276,0,1,1,15.061,0Z" transform="translate(-0.954 -0.953)" fill="#fff"/>
  </g>
</svg>
