<svg id="Page-1" xmlns="http://www.w3.org/2000/svg" width="44.644" height="50.01" viewBox="0 0 44.644 50.01">
  <g id="_027---Good-User-Experience" data-name="027---Good-User-Experience">
    <path id="Shape" d="M44.644,29.1V3.572A3.572,3.572,0,0,0,41.072,0H3.572A3.572,3.572,0,0,0,0,3.572V46.43A3.572,3.572,0,0,0,3.572,50h37.1c4.011.061,3.929-.1,3.97-3.572V29.1ZM3.572,1.786h37.5a1.786,1.786,0,0,1,1.786,1.786v7.143H1.786V3.572A1.786,1.786,0,0,1,3.572,1.786ZM1.786,46.43V12.5H42.858V46.43c.015,1.711-.716,1.72-2.185,1.786H3.572A1.786,1.786,0,0,1,1.786,46.43Z" fill="#fff"/>
    <path id="Shape-2" data-name="Shape" d="M6.679,9.357A2.679,2.679,0,1,0,4,6.679,2.679,2.679,0,0,0,6.679,9.357Zm0-3.572a.893.893,0,1,1-.893.893A.893.893,0,0,1,6.679,5.786Z" transform="translate(-0.428 -0.428)" fill="#fff"/>
    <path id="Shape-3" data-name="Shape" d="M14.679,9.357A2.679,2.679,0,1,0,12,6.679,2.679,2.679,0,0,0,14.679,9.357Zm0-3.572a.893.893,0,1,1-.893.893A.893.893,0,0,1,14.679,5.786Z" transform="translate(-1.285 -0.428)" fill="#fff"/>
    <path id="Shape-4" data-name="Shape" d="M32.679,9.357h8.929a2.679,2.679,0,0,0,0-5.357H32.679a2.679,2.679,0,0,0,0,5.357Zm0-3.572h8.929a.893.893,0,0,1,0,1.786H32.679a.893.893,0,0,1,0-1.786Z" transform="translate(-3.214 -0.428)" fill="#fff"/>
    <path id="Shape-5" data-name="Shape" d="M19.572,25.929a3.572,3.572,0,0,0,3.572-3.572V17.893a.893.893,0,0,0-1.786,0v4.464a1.786,1.786,0,0,1-3.572,0V17.893a.893.893,0,1,0-1.786,0v4.464A3.572,3.572,0,0,0,19.572,25.929Z" transform="translate(-1.714 -1.821)" fill="#fff"/>
    <path id="Shape-6" data-name="Shape" d="M26.357,25.75a.893.893,0,0,0,1.25-.179l1.964-2.619,1.964,2.619A.893.893,0,0,0,32.964,24.5l-2.277-3.036,2.277-3.036a.893.893,0,0,0-1.429-1.071l-1.964,2.619-1.964-2.619a.893.893,0,0,0-1.429,1.071l2.277,3.036L26.179,24.5a.893.893,0,0,0,.179,1.25Z" transform="translate(-2.785 -1.821)" fill="#fff"/>
    <path id="Shape-7" data-name="Shape" d="M6.679,40.715h7.143A2.679,2.679,0,0,0,16.5,38.036V32.679A2.679,2.679,0,0,0,13.822,30H6.679A2.679,2.679,0,0,0,4,32.679v5.357A2.679,2.679,0,0,0,6.679,40.715Zm-.893-2.679V32.8l7.354,6.13H6.679A.893.893,0,0,1,5.786,38.036Zm8.929-5.357v5.238l-7.354-6.13h6.461A.893.893,0,0,1,14.715,32.679Z" transform="translate(-0.428 -3.214)" fill="#fff"/>
    <path id="Shape-8" data-name="Shape" d="M20,30.893a.893.893,0,0,0,.893.893H35.179a.893.893,0,0,0,0-1.786H20.893A.893.893,0,0,0,20,30.893Z" transform="translate(-2.142 -3.214)" fill="#fff"/>
    <path id="Shape-9" data-name="Shape" d="M37.929,44H4.893a.893.893,0,0,0,0,1.786H37.929a.893.893,0,0,0,0-1.786Z" transform="translate(-0.428 -4.713)" fill="#fff"/>
    <path id="Shape-10" data-name="Shape" d="M40.608,48H4.893a.893.893,0,0,0,0,1.786H40.608a.893.893,0,0,0,0-1.786Z" transform="translate(-0.428 -5.142)" fill="#fff"/>
    <path id="Shape-11" data-name="Shape" d="M39.643,35H20.893a.893.893,0,0,0,0,1.786h18.75a.893.893,0,0,0,0-1.786Z" transform="translate(-2.142 -3.749)" fill="#fff"/>
    <path id="Shape-12" data-name="Shape" d="M42.322,40H20.893a.893.893,0,0,0,0,1.786H42.322a.893.893,0,0,0,0-1.786Z" transform="translate(-2.142 -4.285)" fill="#fff"/>
  </g>
</svg>
