<svg xmlns="http://www.w3.org/2000/svg" width="156.22" height="51" viewBox="0 0 156.22 51">
  <g id="Group_107" data-name="Group 107" transform="translate(8083 226)">
    <g id="Group_102" data-name="Group 102">
      <rect id="Rectangle_77" data-name="Rectangle 77" width="59" height="51" transform="translate(-8083 -226)" fill="#007fff"/>
      <path id="Path_70" data-name="Path 70" d="M11.36-28H4.92L.44,0H4.48l.76-5.08h5.4L11.4,0h4.44ZM7.92-23.04,10.04-8.88H5.8ZM17.88,0h6.96c4.4,0,6.56-2.44,6.56-6.92V-21.08c0-4.48-2.16-6.92-6.56-6.92H17.88Zm6.88-24c1.4,0,2.24.72,2.24,2.72V-6.72c0,2-.84,2.72-2.24,2.72H22.28V-24ZM34.2,0h6.96c4.4,0,6.56-2.44,6.56-6.92V-21.08c0-4.48-2.16-6.92-6.56-6.92H34.2Zm6.88-24c1.4,0,2.24.72,2.24,2.72V-6.72c0,2-.84,2.72-2.24,2.72H38.6V-24Z" transform="translate(-8078 -187)" fill="#fff"/>
    </g>
    <path id="Path_69" data-name="Path 69" d="M2.212,0,2.94-1.834H7.42L8.134,0H10.3L6.314-9.8H4.046L.042,0ZM4.956-7.084a3.262,3.262,0,0,0,.224-.77,4.323,4.323,0,0,0,.21.77L6.762-3.57H3.6Zm7.938,1.218V-6.72H11.172V0h1.946V-4.382a1.887,1.887,0,0,1,1.5-.854,1.2,1.2,0,0,1,1.3,1.33V0h1.946V-4.158a2.578,2.578,0,0,0-2.73-2.758A2.907,2.907,0,0,0,12.894-5.866Zm12.544,4.13V-3.878c0-2.212-1.288-3.038-3.3-3.038a8.772,8.772,0,0,0-2.6.448v1.68a6.441,6.441,0,0,1,2.38-.5c1.05,0,1.582.462,1.582,1.134v.238A7.332,7.332,0,0,0,21.9-4.1c-1.344,0-2.954.532-2.954,2.24A2.121,2.121,0,0,0,21.294.2,3.751,3.751,0,0,0,23.716-.63,1.574,1.574,0,0,0,25.2.126a3.28,3.28,0,0,0,1.078-.2V-1.344a1.153,1.153,0,0,1-.364.056C25.662-1.288,25.438-1.386,25.438-1.736Zm-3.094-1.2a5.3,5.3,0,0,1,1.148.154v1.05a2.218,2.218,0,0,1-1.512.546c-.588,0-1.05-.322-1.05-.826C20.93-2.7,21.63-2.94,22.344-2.94Zm4.886-7.28V0h1.946V-10.22ZM32.816,0V-6.72H30.87V0Zm.168-8.946a1.042,1.042,0,0,0-1.148-1.092A1.038,1.038,0,0,0,30.7-8.946,1.042,1.042,0,0,0,31.836-7.84,1.046,1.046,0,0,0,32.984-8.946ZM35-8.68v1.96H33.866v1.638H35v3.01A2.136,2.136,0,0,0,37.422.2,5.485,5.485,0,0,0,39.228-.1V-1.666a3.193,3.193,0,0,1-1.218.224c-.728,0-1.078-.308-1.078-1.008V-5.082H39.06V-6.72H36.932V-9.142ZM42.308,0V-6.72H40.362V0Zm.168-8.946a1.042,1.042,0,0,0-1.148-1.092,1.038,1.038,0,0,0-1.134,1.092A1.042,1.042,0,0,0,41.328-7.84,1.046,1.046,0,0,0,42.476-8.946ZM43.61-3.262A3.382,3.382,0,0,0,47.278.2a5.745,5.745,0,0,0,2.268-.448V-1.974a3.782,3.782,0,0,1-1.89.49A1.868,1.868,0,0,1,45.6-3.36a1.846,1.846,0,0,1,2.086-1.876,3.439,3.439,0,0,1,1.792.5V-6.44A4.435,4.435,0,0,0,47.4-6.93,3.532,3.532,0,0,0,43.61-3.262Zm6.944-1.582c0,2.408,3.794,1.932,3.794,3.01,0,.378-.462.5-1.176.5a4.991,4.991,0,0,1-2.562-.714v1.61A5.4,5.4,0,0,0,53.284.2c1.61,0,3.052-.49,3.052-2.072,0-2.464-3.794-1.9-3.794-3.024,0-.406.5-.532.938-.532a4.635,4.635,0,0,1,2.352.686v-1.6a5.624,5.624,0,0,0-2.478-.574C51.94-6.916,50.554-6.4,50.554-4.844ZM1.05,7.2V17H4.718c3.486,0,5.138-2.058,5.138-4.9S8.2,7.2,4.718,7.2Zm6.664,4.9a2.7,2.7,0,0,1-3,3.052H3.15v-6.1H4.718A2.7,2.7,0,0,1,7.714,12.1Zm3.052,1.54c0,2.338,1.764,3.556,3.892,3.556a6.394,6.394,0,0,0,2.464-.42V15.25a5.043,5.043,0,0,1-2.03.406c-1.106,0-2.142-.406-2.366-1.386h4.732c.448-1.988-.448-4.186-3.234-4.186A3.385,3.385,0,0,0,10.766,13.64Zm4.942-.63h-3a1.48,1.48,0,0,1,1.582-1.442A1.3,1.3,0,0,1,15.708,13.01Zm2.8-.854c0,2.408,3.794,1.932,3.794,3.01,0,.378-.462.5-1.176.5a4.991,4.991,0,0,1-2.562-.714v1.61a5.4,5.4,0,0,0,2.674.63c1.61,0,3.052-.49,3.052-2.072,0-2.464-3.794-1.9-3.794-3.024,0-.406.5-.532.938-.532a4.635,4.635,0,0,1,2.352.686v-1.6a5.624,5.624,0,0,0-2.478-.574C19.894,10.084,18.508,10.6,18.508,12.156ZM27.44,17V10.28H25.494V17Zm.168-8.946a1.142,1.142,0,0,0-2.282,0,1.142,1.142,0,0,0,2.282,0Zm1.134,5.586a3.3,3.3,0,0,0,3.29,3.556,2.892,2.892,0,0,0,2.212-.91V16.9c0,1.33-.994,1.736-2.184,1.736a5.126,5.126,0,0,1-2.59-.7v1.708a6.577,6.577,0,0,0,2.842.63c1.974,0,3.864-.9,3.864-3.458V10.28H34.468v.98a2.871,2.871,0,0,0-2.436-1.176A3.3,3.3,0,0,0,28.742,13.64Zm5.5-.8V14.48a1.932,1.932,0,0,1-1.75,1.078A1.77,1.77,0,0,1,30.73,13.64a1.77,1.77,0,0,1,1.764-1.918A1.918,1.918,0,0,1,34.244,12.842Zm5.306-1.708V10.28H37.828V17h1.946V12.618a1.887,1.887,0,0,1,1.5-.854,1.2,1.2,0,0,1,1.3,1.33V17H44.52V12.842a2.578,2.578,0,0,0-2.73-2.758A2.907,2.907,0,0,0,39.55,11.134ZM1.05,24.2V34H4.718c3.486,0,5.138-2.058,5.138-4.9S8.2,24.2,4.718,24.2Zm6.664,4.9a2.7,2.7,0,0,1-3,3.052H3.15v-6.1H4.718A2.7,2.7,0,0,1,7.714,29.1Zm3.052,1.54c0,2.338,1.764,3.556,3.892,3.556a6.394,6.394,0,0,0,2.464-.42V32.25a5.043,5.043,0,0,1-2.03.406c-1.106,0-2.142-.406-2.366-1.386h4.732c.448-1.988-.448-4.186-3.234-4.186A3.385,3.385,0,0,0,10.766,30.64Zm4.942-.63h-3a1.48,1.48,0,0,1,1.582-1.442A1.3,1.3,0,0,1,15.708,30.01Zm7.616-2.73L21.6,31.942,19.88,27.28H17.808L20.58,34h2.044L25.4,27.28Zm2.338,3.36c0,2.338,1.764,3.556,3.892,3.556a6.394,6.394,0,0,0,2.464-.42V32.25a5.043,5.043,0,0,1-2.03.406c-1.106,0-2.142-.406-2.366-1.386h4.732c.448-1.988-.448-4.186-3.234-4.186A3.385,3.385,0,0,0,25.662,30.64Zm4.942-.63h-3a1.48,1.48,0,0,1,1.582-1.442A1.3,1.3,0,0,1,30.6,30.01Zm3.122-6.23V34h1.946V23.78Zm3.248,6.86a3.46,3.46,0,0,0,3.71,3.556,3.559,3.559,0,1,0,0-7.112A3.46,3.46,0,0,0,36.974,30.64Zm5.446,0a1.731,1.731,0,1,1-3.458,0,1.731,1.731,0,1,1,3.458,0Zm4.97-2.38v-.98H45.668v9.8h1.946V33.286a2.892,2.892,0,0,0,2.212.91A3.3,3.3,0,0,0,53.1,30.64a3.3,3.3,0,0,0-3.276-3.556A2.833,2.833,0,0,0,47.39,28.26Zm3.724,2.38a1.77,1.77,0,0,1-1.764,1.918,1.918,1.918,0,0,1-1.75-1.12v-1.6a1.918,1.918,0,0,1,1.75-1.12A1.77,1.77,0,0,1,51.114,30.64ZM56.322,34V29.576a1.932,1.932,0,0,1,1.442-.812,1.008,1.008,0,0,1,1.05,1.106V34h1.932V29.744a2.168,2.168,0,0,0-.014-.308,1.842,1.842,0,0,1,1.33-.672,1.008,1.008,0,0,1,1.05,1.106V34h1.932V29.744a2.432,2.432,0,0,0-2.506-2.66,3.213,3.213,0,0,0-2.24.994,2.346,2.346,0,0,0-2.058-.994,2.871,2.871,0,0,0-2.142.98V27.28H54.376V34Zm9.926-3.36c0,2.338,1.764,3.556,3.892,3.556a6.394,6.394,0,0,0,2.464-.42V32.25a5.043,5.043,0,0,1-2.03.406c-1.106,0-2.142-.406-2.366-1.386H72.94c.448-1.988-.448-4.186-3.234-4.186A3.385,3.385,0,0,0,66.248,30.64Zm4.942-.63h-3a1.48,1.48,0,0,1,1.582-1.442A1.3,1.3,0,0,1,71.19,30.01Zm4.816-1.876V27.28H74.284V34H76.23V29.618a1.887,1.887,0,0,1,1.5-.854,1.2,1.2,0,0,1,1.3,1.33V34h1.946V29.842a2.578,2.578,0,0,0-2.73-2.758A2.907,2.907,0,0,0,76.006,28.134Zm6.986-2.814v1.96H81.858v1.638h1.134v3.01A2.135,2.135,0,0,0,85.414,34.2,5.485,5.485,0,0,0,87.22,33.9V32.334A3.193,3.193,0,0,1,86,32.558c-.728,0-1.078-.308-1.078-1.008V28.918h2.128V27.28H84.924V24.858Z" transform="translate(-8014 -214)"/>
  </g>
</svg>
