<svg xmlns="http://www.w3.org/2000/svg" width="102.251" height="51.656" viewBox="0 0 102.251 51.656">
  <g id="Group_180" data-name="Group 180" transform="translate(1350.392 1217.64)">
    <path id="Path_135" data-name="Path 135" d="M-2210.4-870H-2275v17.012h43.007s8.294-.815,13.693-5.068S-2210.4-870-2210.4-870Z" transform="translate(962.165 -312.996)" fill="#2e65fa"/>
    <path id="Path_136" data-name="Path 136" d="M-1601.957-870v8.755h-35.448V-870Z" transform="translate(287.014 -312.996)" fill="#2e65fa"/>
    <path id="Path_137" data-name="Path 137" d="M6.336-68.36V-55.3h5.206c4.665,0,6.83-2.724,6.83-6.531s-2.165-6.531-6.83-6.531Zm8.49,6.531c0,2.445-1.213,3.545-3.284,3.545H9.788v-7.091h1.754C13.614-65.374,14.826-64.273,14.826-61.829Zm9.125-6.531V-55.3H27.4V-68.36Zm9.013,6.531c0,4.74,3.527,6.811,7.24,6.811a11.426,11.426,0,0,0,4.329-.877v-6.587H41.268v4.4a3.76,3.76,0,0,1-.9.093,3.535,3.535,0,0,1-3.863-3.844c0-2.687,2-3.769,4.105-3.769a6.479,6.479,0,0,1,3.6,1.045v-3.266a10.534,10.534,0,0,0-4.049-.821C36.528-68.64,32.964-66.7,32.964-61.829Zm17.41-6.531V-55.3h3.452V-68.36Zm8.658,0v3.079h3.695V-55.3H66.18v-9.983h3.676V-68.36ZM75.846-55.3l.746-2.053H82L82.75-55.3H86.3L81.164-68.36H77.432L72.3-55.3Zm3.116-8.621a6.541,6.541,0,0,0,.336-1.325,6.541,6.541,0,0,0,.336,1.325l1.344,3.769H77.618ZM91.278-68.36V-55.3H100.7v-3.079H94.73V-68.36ZM9.788-37.8v-5.038h1.623L14.584-37.8h3.825l-4.292-6.7,4.105-6.363H14.4L11.43-45.921H9.788v-4.945H6.336V-37.8ZM23.242-50.866V-37.8h3.452V-50.866Zm8.658,0v3.079H35.6V-37.8h3.452v-9.983h3.676v-3.079Zm15,6.718c0,4.665,3.564,6.624,7.147,6.624a8.818,8.818,0,0,0,3.807-.821V-41.7a4.8,4.8,0,0,1-3.322,1.138c-2.034,0-4.087-1.045-4.087-3.583,0-2.836,2.053-3.975,4.124-3.975a5.091,5.091,0,0,1,3.191,1.064v-3.266a8.915,8.915,0,0,0-3.788-.821C50.449-51.146,46.9-49.075,46.9-44.148ZM71.8-50.866v5H66.945v-5H63.493V-37.8h3.452v-4.982H71.8V-37.8h3.452V-50.866Zm9.647,0V-37.8h9.517v-2.986H84.9v-2.127h5.393v-2.967H84.9v-2h5.953v-2.986Zm18.7,13.062v-5.337c0-.709-.019-1.53-.075-2.146L105.18-37.8h3.266V-50.866h-3.452v5.337c0,.728.019,1.549.075,2.165l-5.113-7.5H96.689V-37.8Z" transform="translate(-1356.586 -1149)" fill="#fff"/>
  </g>
</svg>
